<svg xmlns="http://www.w3.org/2000/svg" viewBox="0 0 32 32"><defs><style>.cls-1{fill:#a1d8df;}.cls-2{fill:#d1e6e9;}.cls-3{fill:#68c7d3;}.cls-4{fill:#30acc2;}</style></defs><title>Buck</title><g id="Buck"><polygon class="cls-1" points="31 10 31 14 28 16 4 16 1 14 1 10 31 10"/><rect class="cls-2" x="5" y="16" width="2" height="3"/><rect class="cls-3" x="4" y="19" width="4" height="5"/><rect class="cls-2" x="25" y="16" width="2" height="3" transform="translate(52 35) rotate(-180)"/><rect class="cls-3" x="24" y="19" width="4" height="5" transform="translate(52 43) rotate(-180)"/><rect class="cls-4" x="1" y="24" width="30" height="2"/><path class="cls-2" d="M13,10H11V9A1,1,0,0,0,9,9v1H7V9a3,3,0,0,1,6,0Z"/><path class="cls-2" d="M19,10h2V9a1,1,0,0,1,2,0v1h2V9a3,3,0,0,0-6,0Z"/></g></svg>